<?xml version="1.0" standalone="no"?>
<!DOCTYPE svg PUBLIC "-//W3C//DTD SVG 20010904//EN"
 "http://www.w3.org/TR/2001/REC-SVG-20010904/DTD/svg10.dtd">
<svg version="1.0" xmlns="http://www.w3.org/2000/svg"
 width="34.000000pt" height="35.000000pt" viewBox="0 0 34.000000 35.000000"
 preserveAspectRatio="xMidYMid meet">

<g transform="translate(0.000000,35.000000) scale(0.100000,-0.100000)"
fill="#000000" stroke="none">
<path d="M160 316 c0 -10 8 -16 23 -16 64 0 125 -80 112 -147 -16 -88 -120
-132 -195 -81 -25 17 -39 37 -50 71 -16 51 -37 58 -32 11 4 -39 31 -82 65
-108 40 -30 134 -30 174 0 111 83 74 259 -60 281 -30 4 -37 3 -37 -11z"/>
<path d="M105 311 c-6 -11 9 -23 19 -14 9 9 7 23 -3 23 -6 0 -12 -4 -16 -9z"/>
<path d="M60 275 c0 -8 5 -15 10 -15 6 0 10 7 10 15 0 8 -4 15 -10 15 -5 0
-10 -7 -10 -15z"/>
<path d="M160 230 c0 -32 -5 -43 -27 -57 -16 -9 -30 -18 -32 -19 -1 -2 0 -7 3
-13 5 -7 19 -5 41 6 33 16 35 19 35 70 0 29 -4 53 -10 53 -5 0 -10 -18 -10
-40z"/>
<path d="M30 230 c0 -5 5 -10 10 -10 6 0 10 5 10 10 0 6 -4 10 -10 10 -5 0
-10 -4 -10 -10z"/>
</g>
</svg>
