<?xml version="1.0" standalone="no"?>
<!DOCTYPE svg PUBLIC "-//W3C//DTD SVG 20010904//EN"
 "http://www.w3.org/TR/2001/REC-SVG-20010904/DTD/svg10.dtd">
<svg version="1.0" xmlns="http://www.w3.org/2000/svg"
 width="91.000000pt" height="64.000000pt" viewBox="0 0 91.000000 64.000000"
 preserveAspectRatio="xMidYMid meet">

<g transform="translate(0.000000,64.000000) scale(0.100000,-0.100000)"
fill="#000000" stroke="none">
<path d="M668 618 c-3 -23 -4 -23 -228 -28 -124 -3 -231 -9 -237 -13 -20 -13
-15 -55 6 -67 11 -5 67 -10 125 -10 64 0 106 -4 106 -10 0 -5 -8 -10 -18 -10
-23 0 -42 -19 -42 -42 0 -17 -13 -18 -158 -18 -217 0 -202 16 -202 -210 0
-149 3 -181 16 -194 13 -14 65 -16 419 -16 354 0 406 2 419 16 13 13 16 45 16
194 0 226 15 210 -202 210 -145 0 -158 1 -158 18 0 22 -19 42 -40 42 -8 0 -20
10 -25 23 -9 21 -17 22 -127 25 -96 2 -118 5 -118 17 0 13 33 15 219 15 121 0
226 3 235 6 10 4 16 18 16 40 0 38 -17 47 -22 12z m-170 -185 c2 -9 -10 -13
-42 -13 -43 0 -55 7 -39 24 12 11 76 2 81 -11z m360 -226 l2 -177 -405 0 -405
0 0 173 c0 96 3 177 7 180 4 4 185 6 402 5 l396 -3 3 -178z"/>
<path d="M75 340 c-13 -39 3 -60 46 -60 39 0 39 0 39 40 0 40 0 40 -39 40 -31
0 -41 -4 -46 -20z m55 -20 c0 -5 -7 -10 -15 -10 -8 0 -15 5 -15 10 0 6 7 10
15 10 8 0 15 -4 15 -10z"/>
<path d="M190 320 l0 -40 40 0 40 0 0 40 0 40 -40 0 -40 0 0 -40z m50 0 c0 -5
-4 -10 -10 -10 -5 0 -10 5 -10 10 0 6 5 10 10 10 6 0 10 -4 10 -10z"/>
<path d="M300 320 c0 -40 0 -40 40 -40 34 0 41 4 46 25 10 41 -1 55 -46 55
l-40 0 0 -40z m60 0 c0 -5 -7 -10 -15 -10 -8 0 -15 5 -15 10 0 6 7 10 15 10 8
0 15 -4 15 -10z"/>
<path d="M412 323 c3 -37 4 -38 43 -38 39 0 40 1 40 35 0 34 -1 35 -43 38
l-43 3 3 -38z m58 -3 c0 -5 -7 -10 -15 -10 -8 0 -15 5 -15 10 0 6 7 10 15 10
8 0 15 -4 15 -10z"/>
<path d="M524 335 c-10 -41 1 -55 46 -55 l40 0 0 40 c0 40 0 40 -40 40 -34 0
-41 -4 -46 -25z m56 -15 c0 -5 -7 -10 -15 -10 -8 0 -15 5 -15 10 0 6 7 10 15
10 8 0 15 -4 15 -10z"/>
<path d="M640 320 l0 -40 40 0 40 0 0 40 0 40 -40 0 -40 0 0 -40z m50 0 c0 -5
-4 -10 -10 -10 -5 0 -10 5 -10 10 0 6 5 10 10 10 6 0 10 -4 10 -10z"/>
<path d="M750 320 c0 -40 0 -40 39 -40 31 0 41 4 46 20 13 39 -3 60 -46 60
-39 0 -39 0 -39 -40z m60 0 c0 -5 -7 -10 -15 -10 -8 0 -15 5 -15 10 0 6 7 10
15 10 8 0 15 -4 15 -10z"/>
<path d="M137 244 c-4 -4 -7 -22 -7 -40 0 -28 4 -35 27 -40 37 -10 58 7 58 47
0 32 -2 34 -35 37 -20 2 -39 0 -43 -4z m53 -39 c0 -8 -7 -15 -15 -15 -8 0 -15
7 -15 15 0 8 7 15 15 15 8 0 15 -7 15 -15z"/>
<path d="M244 236 c-9 -23 0 -58 17 -69 9 -5 28 -7 43 -3 24 6 27 11 24 44 -3
35 -5 37 -41 40 -26 2 -39 -1 -43 -12z m56 -32 c0 -17 -22 -14 -28 4 -2 7 3
12 12 12 9 0 16 -7 16 -16z"/>
<path d="M360 210 c0 -45 14 -56 55 -46 21 5 25 12 25 46 0 40 0 40 -40 40
l-40 0 0 -40z m50 -5 c0 -8 -4 -15 -10 -15 -5 0 -10 7 -10 15 0 8 5 15 10 15
6 0 10 -7 10 -15z"/>
<path d="M470 210 c0 -34 4 -41 25 -46 41 -10 55 1 55 46 l0 40 -40 0 c-40 0
-40 0 -40 -40z m50 -5 c0 -8 -4 -15 -10 -15 -5 0 -10 7 -10 15 0 8 5 15 10 15
6 0 10 -7 10 -15z"/>
<path d="M587 244 c-4 -4 -7 -22 -7 -40 0 -28 4 -35 27 -40 37 -10 58 7 58 47
0 32 -2 34 -35 37 -20 2 -39 0 -43 -4z m53 -39 c0 -8 -7 -15 -15 -15 -8 0 -15
7 -15 15 0 8 7 15 15 15 8 0 15 -7 15 -15z"/>
<path d="M694 236 c-9 -23 0 -58 17 -69 9 -5 28 -7 43 -3 24 6 27 11 24 44 -3
35 -5 37 -41 40 -26 2 -39 -1 -43 -12z m56 -32 c0 -9 -5 -14 -12 -12 -18 6
-21 28 -4 28 9 0 16 -7 16 -16z"/>
<path d="M74 116 c-3 -13 -3 -34 1 -46 5 -17 13 -21 43 -18 36 3 37 4 37 43 0
39 -1 40 -37 43 -33 3 -38 0 -44 -22z m56 -21 c0 -8 -7 -15 -15 -15 -8 0 -15
7 -15 15 0 8 7 15 15 15 8 0 15 -7 15 -15z"/>
<path d="M197 134 c-4 -4 -7 -25 -7 -46 0 -39 0 -39 38 -36 36 3 37 4 37 43 0
37 -2 40 -30 43 -17 2 -34 0 -38 -4z m43 -39 c0 -8 -4 -15 -10 -15 -5 0 -10 7
-10 15 0 8 5 15 10 15 6 0 10 -7 10 -15z"/>
<path d="M304 126 c-3 -8 -4 -27 -2 -43 l3 -28 150 0 150 0 0 40 0 40 -148 3
c-121 2 -148 0 -153 -12z m276 -31 c0 -13 -21 -15 -125 -15 -104 0 -125 2
-125 15 0 13 21 15 125 15 104 0 125 -2 125 -15z"/>
<path d="M647 134 c-4 -4 -7 -25 -7 -46 0 -39 0 -39 38 -36 36 3 37 4 37 43 0
37 -2 40 -30 43 -17 2 -34 0 -38 -4z m43 -39 c0 -8 -4 -15 -10 -15 -5 0 -10 7
-10 15 0 8 5 15 10 15 6 0 10 -7 10 -15z"/>
<path d="M754 126 c-3 -8 -4 -27 -2 -43 3 -24 8 -28 40 -31 30 -3 38 1 43 18
4 12 4 32 1 46 -5 20 -13 24 -42 24 -21 0 -37 -6 -40 -14z m56 -31 c0 -8 -7
-15 -15 -15 -8 0 -15 7 -15 15 0 8 7 15 15 15 8 0 15 -7 15 -15z"/>
</g>
</svg>
