<?xml version="1.0" standalone="no"?>
<!DOCTYPE svg PUBLIC "-//W3C//DTD SVG 20010904//EN"
 "http://www.w3.org/TR/2001/REC-SVG-20010904/DTD/svg10.dtd">
<svg version="1.0" xmlns="http://www.w3.org/2000/svg"
 width="35.000000pt" height="34.000000pt" viewBox="0 0 35.000000 34.000000"
 preserveAspectRatio="xMidYMid meet">

<g transform="translate(0.000000,34.000000) scale(0.100000,-0.100000)"
fill="#000000" stroke="none">
<path d="M126 328 c-3 -7 -6 -20 -9 -28 -2 -10 -16 -15 -38 -15 -29 0 -37 -6
-54 -37 -19 -36 -19 -37 -1 -57 19 -21 19 -21 0 -42 -18 -20 -18 -21 1 -57 17
-32 25 -37 55 -37 28 0 35 -4 40 -25 5 -22 11 -25 55 -25 44 0 50 3 55 25 5
21 12 25 40 25 30 0 38 5 55 37 19 36 19 37 1 57 -19 21 -19 21 0 42 18 20 18
21 -1 57 -17 32 -25 37 -55 37 -28 0 -35 4 -40 25 -5 22 -12 25 -53 28 -32 2
-49 -1 -51 -10z m86 -43 c9 -19 19 -25 44 -25 43 0 64 -32 40 -59 -20 -22 -20
-40 0 -62 22 -25 3 -59 -34 -59 -32 0 -46 -9 -55 -33 -10 -27 -55 -22 -69 8
-9 19 -19 25 -44 25 -43 0 -64 32 -40 59 20 22 20 40 0 62 -22 25 -3 59 34 59
32 0 46 9 55 33 10 27 55 22 69 -8z"/>
<path d="M160 233 c-55 -20 -67 -78 -23 -112 17 -14 33 -19 47 -15 60 18 75
77 30 113 -28 22 -30 23 -54 14z m38 -35 c19 -19 14 -56 -8 -63 -24 -8 -50 10
-50 34 0 19 19 41 35 41 6 0 16 -5 23 -12z"/>
</g>
</svg>
